<?xml version="1.0" encoding="UTF-8" standalone="yes"?><svg xmlns="http://www.w3.org/2000/svg" xmlns:xlink="http://www.w3.org/1999/xlink" height="973px" style="width:261px;height:973px;" version="1.1" viewBox="0 0 261 973" width="261px"><defs><filter height="300%" id="f1" width="300%" x="-1" y="-1"><feGaussianBlur result="blurOut" stdDeviation="2.0"/><feColorMatrix in="blurOut" result="blurOut2" type="matrix" values="0 0 0 0 0 0 0 0 0 0 0 0 0 0 0 0 0 0 .4 0"/><feOffset dx="4.0" dy="4.0" in="blurOut2" result="blurOut3"/><feBlend in="SourceGraphic" in2="blurOut3" mode="normal"/></filter></defs><g><ellipse cx="94" cy="20" fill="#000000" filter="url(#f1)" rx="10" ry="10" style="stroke: none; stroke-width: 1.0;"/><rect fill="#FFFFFF" filter="url(#f1)" height="211.2344" style="stroke: #000000; stroke-width: 2.0;" width="168" x="10" y="40.8018"/><path d="M68,41.8018 L68,50.0986 L58,60.0986 L10,60.0986 " fill="#FFFFFF" style="stroke: #000000; stroke-width: 2.0;"/><text fill="#000000" font-family="sans-serif" font-size="14" lengthAdjust="spacingAndGlyphs" textLength="48" x="13" y="54.7969">Builder</text><rect fill="#000000" filter="url(#f1)" height="6" rx="2.5" ry="2.5" style="stroke: #000000; stroke-width: 1.0;" width="148" x="20" y="77.0986"/><rect fill="#FEFECE" filter="url(#f1)" height="33.9688" rx="12.5" ry="12.5" style="stroke: #A80036; stroke-width: 1.5;" width="39" x="34" y="103.0986"/><text fill="#000000" font-family="sans-serif" font-size="12" lengthAdjust="spacingAndGlyphs" textLength="19" x="44" y="124.2373">API</text><rect fill="#FEFECE" filter="url(#f1)" height="33.9688" rx="12.5" ry="12.5" style="stroke: #A80036; stroke-width: 1.5;" width="53" x="101" y="103.0986"/><text fill="#000000" font-family="sans-serif" font-size="12" lengthAdjust="spacingAndGlyphs" textLength="33" x="111" y="124.2373">Lexer</text><rect fill="#000000" filter="url(#f1)" height="6" rx="2.5" ry="2.5" style="stroke: #000000; stroke-width: 1.0;" width="148" x="20" y="157.0674"/><rect fill="#FEFECE" filter="url(#f1)" height="33.9688" style="stroke: #A80036; stroke-width: 1.5;" width="109" x="39.5" y="198.0674"/><text fill="#000000" font-family="sans-serif" font-size="12" lengthAdjust="spacingAndGlyphs" textLength="89" x="49.5" y="219.2061">SourceTokens</text><rect fill="#FFFFFF" filter="url(#f1)" height="663.4453" style="stroke: #000000; stroke-width: 2.0;" width="233.5" x="21" y="262.8379"/><path d="M115,263.8379 L115,272.1348 L105,282.1348 L21,282.1348 " fill="#FFFFFF" style="stroke: #000000; stroke-width: 2.0;"/><text fill="#000000" font-family="sans-serif" font-size="14" lengthAdjust="spacingAndGlyphs" textLength="84" x="24" y="276.833">Transformer</text><polygon fill="#FBFB77" filter="url(#f1)" points="165.5,299.1348,165.5,354.5332,244.5,354.5332,244.5,309.1348,234.5,299.1348,165.5,299.1348" style="stroke: #A80036; stroke-width: 1.0;"/><polygon fill="#FBFB77" points="165.5,299.1348,165.5,322.834,145.5,326.834,165.5,330.834,165.5,354.5332,244.5,354.5332,244.5,309.1348,234.5,299.1348,165.5,299.1348" style="stroke: #A80036; stroke-width: 1.0;"/><line style="stroke: #A80036; stroke-width: 1.0;" x1="234.5" x2="234.5" y1="299.1348" y2="309.1348"/><line style="stroke: #A80036; stroke-width: 1.0;" x1="244.5" x2="234.5" y1="309.1348" y2="309.1348"/><text fill="#000000" font-family="sans-serif" font-size="13" lengthAdjust="spacingAndGlyphs" textLength="38" x="171.5" y="316.2017">- html</text><text fill="#000000" font-family="sans-serif" font-size="13" lengthAdjust="spacingAndGlyphs" textLength="58" x="171.5" y="331.3345">- console</text><text fill="#000000" font-family="sans-serif" font-size="13" lengthAdjust="spacingAndGlyphs" textLength="34" x="171.5" y="346.4673">- text</text><rect fill="#FEFECE" filter="url(#f1)" height="33.9688" rx="12.5" ry="12.5" style="stroke: #A80036; stroke-width: 1.5;" width="103" x="42.5" y="309.8496"/><text fill="#000000" font-family="sans-serif" font-size="12" lengthAdjust="spacingAndGlyphs" textLength="83" x="52.5" y="330.9883">select format</text><rect fill="#FEFECE" filter="url(#f1)" height="33.9688" rx="12.5" ry="12.5" style="stroke: #A80036; stroke-width: 1.5;" width="96" x="46" y="389.5332"/><text fill="#000000" font-family="sans-serif" font-size="12" lengthAdjust="spacingAndGlyphs" textLength="76" x="56" y="410.6719">pre optimize</text><rect fill="#FEFECE" filter="url(#f1)" height="33.9688" style="stroke: #A80036; stroke-width: 1.5;" width="86" x="51" y="458.502"/><text fill="#000000" font-family="sans-serif" font-size="12" lengthAdjust="spacingAndGlyphs" textLength="66" x="61" y="479.6406">PreTokens</text><rect fill="#FEFECE" filter="url(#f1)" height="33.9688" rx="12.5" ry="12.5" style="stroke: #A80036; stroke-width: 1.5;" width="126" x="31" y="527.4707"/><text fill="#000000" font-family="sans-serif" font-size="12" lengthAdjust="spacingAndGlyphs" textLength="106" x="41" y="548.6094">transform format</text><rect fill="#FEFECE" filter="url(#f1)" height="33.9688" style="stroke: #A80036; stroke-width: 1.5;" width="100" x="44" y="596.4395"/><text fill="#000000" font-family="sans-serif" font-size="12" lengthAdjust="spacingAndGlyphs" textLength="80" x="54" y="617.5781">TransTokens</text><rect fill="#FEFECE" filter="url(#f1)" height="33.9688" rx="12.5" ry="12.5" style="stroke: #A80036; stroke-width: 1.5;" width="103" x="42.5" y="665.4082"/><text fill="#000000" font-family="sans-serif" font-size="12" lengthAdjust="spacingAndGlyphs" textLength="83" x="52.5" y="686.5469">post optimize</text><rect fill="#FEFECE" filter="url(#f1)" height="33.9688" style="stroke: #A80036; stroke-width: 1.5;" width="93" x="47.5" y="734.377"/><text fill="#000000" font-family="sans-serif" font-size="12" lengthAdjust="spacingAndGlyphs" textLength="73" x="57.5" y="755.5156">PostTokens</text><rect fill="#FEFECE" filter="url(#f1)" height="33.9688" rx="12.5" ry="12.5" style="stroke: #A80036; stroke-width: 1.5;" width="118" x="35" y="803.3457"/><text fill="#000000" font-family="sans-serif" font-size="12" lengthAdjust="spacingAndGlyphs" textLength="98" x="45" y="824.4844">join into stream</text><rect fill="#FEFECE" filter="url(#f1)" height="33.9688" style="stroke: #A80036; stroke-width: 1.5;" width="63" x="62.5" y="872.3145"/><text fill="#000000" font-family="sans-serif" font-size="12" lengthAdjust="spacingAndGlyphs" textLength="43" x="72.5" y="893.4531">Output</text><ellipse cx="94" cy="956.2832" fill="none" filter="url(#f1)" rx="10" ry="10" style="stroke: #000000; stroke-width: 1.0;"/><ellipse cx="94.5" cy="956.7832" fill="#000000" filter="url(#f1)" rx="6" ry="6" style="stroke: none; stroke-width: 1.0;"/><line style="stroke: #A80036; stroke-width: 1.5;" x1="53.5" x2="53.5" y1="83.0986" y2="103.0986"/><polygon fill="#A80036" points="49.5,93.0986,53.5,103.0986,57.5,93.0986,53.5,97.0986" style="stroke: #A80036; stroke-width: 1.0;"/><line style="stroke: #A80036; stroke-width: 1.5;" x1="53.5" x2="53.5" y1="137.0674" y2="157.0674"/><polygon fill="#A80036" points="49.5,147.0674,53.5,157.0674,57.5,147.0674,53.5,151.0674" style="stroke: #A80036; stroke-width: 1.0;"/><line style="stroke: #A80036; stroke-width: 1.5;" x1="127.5" x2="127.5" y1="83.0986" y2="103.0986"/><polygon fill="#A80036" points="123.5,93.0986,127.5,103.0986,131.5,93.0986,127.5,97.0986" style="stroke: #A80036; stroke-width: 1.0;"/><line style="stroke: #A80036; stroke-width: 1.5;" x1="127.5" x2="127.5" y1="137.0674" y2="157.0674"/><polygon fill="#A80036" points="123.5,147.0674,127.5,157.0674,131.5,147.0674,127.5,151.0674" style="stroke: #A80036; stroke-width: 1.0;"/><line style="stroke: #A80036; stroke-width: 1.5;" x1="94" x2="94" y1="163.0674" y2="198.0674"/><polygon fill="#A80036" points="90,188.0674,94,198.0674,98,188.0674,94,192.0674" style="stroke: #A80036; stroke-width: 1.0;"/><line style="stroke: #A80036; stroke-width: 1.5;" x1="94" x2="94" y1="30" y2="77.0986"/><polygon fill="#A80036" points="90,67.0986,94,77.0986,98,67.0986,94,71.0986" style="stroke: #A80036; stroke-width: 1.0;"/><line style="stroke: #A80036; stroke-width: 1.5;" x1="94" x2="94" y1="343.8184" y2="389.5332"/><polygon fill="#A80036" points="90,379.5332,94,389.5332,98,379.5332,94,383.5332" style="stroke: #A80036; stroke-width: 1.0;"/><line style="stroke: #A80036; stroke-width: 1.5;" x1="94" x2="94" y1="423.502" y2="458.502"/><polygon fill="#A80036" points="90,448.502,94,458.502,98,448.502,94,452.502" style="stroke: #A80036; stroke-width: 1.0;"/><line style="stroke: #A80036; stroke-width: 1.5;" x1="94" x2="94" y1="492.4707" y2="527.4707"/><polygon fill="#A80036" points="90,517.4707,94,527.4707,98,517.4707,94,521.4707" style="stroke: #A80036; stroke-width: 1.0;"/><line style="stroke: #A80036; stroke-width: 1.5;" x1="94" x2="94" y1="561.4395" y2="596.4395"/><polygon fill="#A80036" points="90,586.4395,94,596.4395,98,586.4395,94,590.4395" style="stroke: #A80036; stroke-width: 1.0;"/><line style="stroke: #A80036; stroke-width: 1.5;" x1="94" x2="94" y1="630.4082" y2="665.4082"/><polygon fill="#A80036" points="90,655.4082,94,665.4082,98,655.4082,94,659.4082" style="stroke: #A80036; stroke-width: 1.0;"/><line style="stroke: #A80036; stroke-width: 1.5;" x1="94" x2="94" y1="699.377" y2="734.377"/><polygon fill="#A80036" points="90,724.377,94,734.377,98,724.377,94,728.377" style="stroke: #A80036; stroke-width: 1.0;"/><line style="stroke: #A80036; stroke-width: 1.5;" x1="94" x2="94" y1="768.3457" y2="803.3457"/><polygon fill="#A80036" points="90,793.3457,94,803.3457,98,793.3457,94,797.3457" style="stroke: #A80036; stroke-width: 1.0;"/><line style="stroke: #A80036; stroke-width: 1.5;" x1="94" x2="94" y1="837.3145" y2="872.3145"/><polygon fill="#A80036" points="90,862.3145,94,872.3145,98,862.3145,94,866.3145" style="stroke: #A80036; stroke-width: 1.0;"/><line style="stroke: #A80036; stroke-width: 1.5;" x1="94" x2="94" y1="232.0361" y2="309.8496"/><polygon fill="#A80036" points="90,299.8496,94,309.8496,98,299.8496,94,303.8496" style="stroke: #A80036; stroke-width: 1.0;"/><line style="stroke: #A80036; stroke-width: 1.5;" x1="94" x2="94" y1="906.2832" y2="946.2832"/><polygon fill="#A80036" points="90,936.2832,94,946.2832,98,936.2832,94,940.2832" style="stroke: #A80036; stroke-width: 1.0;"/></g></svg>