<?xml version="1.0" encoding="UTF-8" standalone="yes"?><svg xmlns="http://www.w3.org/2000/svg" xmlns:xlink="http://www.w3.org/1999/xlink" height="333px" style="width:289px;height:333px;" version="1.1" viewBox="0 0 289 333" width="289px"><defs><filter height="300%" id="f1" width="300%" x="-1" y="-1"><feGaussianBlur result="blurOut" stdDeviation="2.0"/><feColorMatrix in="blurOut" result="blurOut2" type="matrix" values="0 0 0 0 0 0 0 0 0 0 0 0 0 0 0 0 0 0 .4 0"/><feOffset dx="4.0" dy="4.0" in="blurOut2" result="blurOut3"/><feBlend in="SourceGraphic" in2="blurOut3" mode="normal"/></filter></defs><g><ellipse cx="144" cy="33" fill="#000000" filter="url(#f1)" rx="10" ry="10" style="stroke: none; stroke-width: 1.0;"/><rect fill="#FEFECE" filter="url(#f1)" height="50.2656" rx="12.5" ry="12.5" style="stroke: #A80036; stroke-width: 1.5;" width="60" x="189.5" y="8"/><line style="stroke: #A80036; stroke-width: 1.5;" x1="189.5" x2="249.5" y1="34.2969" y2="34.2969"/><text fill="#000000" font-family="sans-serif" font-size="14" lengthAdjust="spacingAndGlyphs" textLength="38" x="200.5" y="25.9951">Block</text><text fill="#000000" font-family="sans-serif" font-size="12" lengthAdjust="spacingAndGlyphs" textLength="40" x="194.5" y="50.4355">P, PRE</text><rect fill="#FEFECE" filter="url(#f1)" height="190.2969" rx="12.5" ry="12.5" style="stroke: #A80036; stroke-width: 1.5;" width="276" x="6" y="136"/><rect fill="#FFFFFF" height="158" rx="12.5" ry="12.5" style="stroke: #FFFFFF; stroke-width: 1.0;" width="270" x="9" y="165.2969"/><line style="stroke: #A80036; stroke-width: 1.5;" x1="6" x2="282" y1="162.2969" y2="162.2969"/><text fill="#000000" font-family="sans-serif" font-size="14" lengthAdjust="spacingAndGlyphs" textLength="37" x="125.5" y="153.9951">Lexer</text><ellipse cx="40" cy="200.2969" fill="#000000" filter="url(#f1)" rx="10" ry="10" style="stroke: none; stroke-width: 1.0;"/><rect fill="#FEFECE" filter="url(#f1)" height="50" rx="12.5" ry="12.5" style="stroke: #A80036; stroke-width: 1.5;" width="91" x="68.75" y="175.2969"/><line style="stroke: #A80036; stroke-width: 1.5;" x1="68.75" x2="159.75" y1="201.5938" y2="201.5938"/><text fill="#000000" font-family="sans-serif" font-size="14" lengthAdjust="spacingAndGlyphs" textLength="71" x="78.75" y="193.292">Markdown</text><rect fill="#FEFECE" filter="url(#f1)" height="50" rx="12.5" ry="12.5" style="stroke: #A80036; stroke-width: 1.5;" width="50" x="17" y="261.2969"/><line style="stroke: #A80036; stroke-width: 1.5;" x1="17" x2="67" y1="287.5938" y2="287.5938"/><text fill="#000000" font-family="sans-serif" font-size="14" lengthAdjust="spacingAndGlyphs" textLength="29" x="27.5" y="279.292">Raw</text><rect fill="#FEFECE" filter="url(#f1)" height="50" rx="12.5" ry="12.5" style="stroke: #A80036; stroke-width: 1.5;" width="58" x="85.5" y="261.2969"/><line style="stroke: #A80036; stroke-width: 1.5;" x1="85.5" x2="143.5" y1="287.5938" y2="287.5938"/><text fill="#000000" font-family="sans-serif" font-size="14" lengthAdjust="spacingAndGlyphs" textLength="38" x="95.5" y="279.292">HTML</text><rect fill="#FEFECE" filter="url(#f1)" height="50" rx="12.5" ry="12.5" style="stroke: #A80036; stroke-width: 1.5;" width="50" x="161" y="261.2969"/><line style="stroke: #A80036; stroke-width: 1.5;" x1="161" x2="211" y1="287.5938" y2="287.5938"/><text fill="#000000" font-family="sans-serif" font-size="14" lengthAdjust="spacingAndGlyphs" textLength="28" x="172" y="279.292">CSV</text><ellipse cx="239" cy="286.2969" fill="none" filter="url(#f1)" rx="10" ry="10" style="stroke: #000000; stroke-width: 1.0;"/><ellipse cx="239.5" cy="286.7969" fill="#000000" rx="6" ry="6" style="stroke: none; stroke-width: 1.0;"/><path d="M50.1172,200.2969 C54.5414,200.2969 58.9655,200.2969 63.3897,200.2969 " fill="none" style="stroke: #A80036; stroke-width: 1.0;"/><polygon fill="#A80036" points="68.5833,200.2969,59.5833,196.2969,63.5833,200.2969,59.5833,204.2969,68.5833,200.2969" style="stroke: #A80036; stroke-width: 1.0;"/><path d="M86.9886,225.5932 C77.8907,235.4316 68.0211,246.8564 59.7844,257.062 " fill="none" style="stroke: #A80036; stroke-width: 1.0;"/><polygon fill="#A80036" points="56.5963,261.0552,65.3376,256.5176,59.716,257.1478,59.0858,251.5261,56.5963,261.0552" style="stroke: #A80036; stroke-width: 1.0;"/><path d="M67.0914,263.0655 C76.6987,252.7913 87.3849,240.4724 96.2022,229.5484 " fill="none" style="stroke: #A80036; stroke-width: 1.0;"/><polygon fill="#A80036" points="99.3606,225.5932,90.6189,230.13,96.2406,229.5003,96.8703,235.122,99.3606,225.5932" style="stroke: #A80036; stroke-width: 1.0;"/><path d="M107.814,225.5932 C107.1726,235.0833 107.0783,246.0496 107.5311,255.9738 " fill="none" style="stroke: #A80036; stroke-width: 1.0;"/><polygon fill="#A80036" points="107.8177,261.0552,111.3043,251.8441,107.536,256.0631,103.317,252.2948,107.8177,261.0552" style="stroke: #A80036; stroke-width: 1.0;"/><path d="M120.182,261.0552 C120.826,251.5707 120.922,240.6054 120.472,230.6771 " fill="none" style="stroke: #A80036; stroke-width: 1.0;"/><polygon fill="#A80036" points="120.186,225.5932,116.6973,234.8034,120.4665,230.5853,124.6847,234.3546,120.186,225.5932" style="stroke: #A80036; stroke-width: 1.0;"/><path d="M128.639,225.5932 C136.953,236.1228 147.498,248.4696 157.326,259.1941 " fill="none" style="stroke: #A80036; stroke-width: 1.0;"/><polygon fill="#A80036" points="160.909,263.0655,157.7319,253.7431,157.513,259.3957,151.8603,259.1768,160.909,263.0655" style="stroke: #A80036; stroke-width: 1.0;"/><path d="M171.404,261.0552 C163.574,251.1357 153.758,239.5963 144.424,229.3177 " fill="none" style="stroke: #A80036; stroke-width: 1.0;"/><polygon fill="#A80036" points="141.011,225.5932,144.1429,234.9308,144.3892,229.2793,150.0407,229.5256,141.011,225.5932" style="stroke: #A80036; stroke-width: 1.0;"/><path d="M159.283,221.998 C179.069,232.2436 201.849,245.7553 220,261.2969 C224.032,264.749 227.809,269.1605 230.918,273.2574 " fill="none" style="stroke: #A80036; stroke-width: 1.0;"/><polygon fill="#A80036" points="234.008,277.5191,231.9636,267.8847,231.0731,273.4711,225.4868,272.5805,234.008,277.5191" style="stroke: #A80036; stroke-width: 1.0;"/><path d="M144,43.191 C144,59.421 144,94.829 144,130.501 " fill="none" style="stroke: #A80036; stroke-width: 1.0;"/><polygon fill="#A80036" points="144,135.764,148,126.764,144,130.764,140,126.764,144,135.764" style="stroke: #A80036; stroke-width: 1.0;"/><text fill="#000000" font-family="sans-serif" font-size="13" lengthAdjust="spacingAndGlyphs" textLength="64" x="145" y="101.0669">Markdown</text></g></svg>